<svg width="478" height="478" xmlns="http://www.w3.org/2000/svg" xmlns:xlink="http://www.w3.org/1999/xlink" overflow="hidden"><defs><filter id="fx0" x="-10%" y="-10%" width="120%" height="120%" filterUnits="userSpaceOnUse" primitiveUnits="userSpaceOnUse"><feComponentTransfer color-interpolation-filters="sRGB"><feFuncR type="discrete" tableValues="0 0"/><feFuncG type="discrete" tableValues="0 0"/><feFuncB type="discrete" tableValues="0 0"/><feFuncA type="linear" slope="0.141176" intercept="0"/></feComponentTransfer><feGaussianBlur stdDeviation="8 8"/></filter><clipPath id="clip1"><rect x="401" y="121" width="478" height="478"/></clipPath><linearGradient x1="533.983" y1="254.199" x2="853.017" y2="619.801" gradientUnits="userSpaceOnUse" spreadMethod="reflect" id="fill2"><stop offset="0" stop-color="#000000" stop-opacity="0.0784314"/><stop offset="0.0526316" stop-color="#000000" stop-opacity="0.0743034"/><stop offset="0.105263" stop-color="#000000" stop-opacity="0.0701754"/><stop offset="0.157895" stop-color="#000000" stop-opacity="0.0660475"/><stop offset="0.210526" stop-color="#000000" stop-opacity="0.0619195"/><stop offset="0.263158" stop-color="#000000" stop-opacity="0.0577915"/><stop offset="0.315789" stop-color="#000000" stop-opacity="0.0536636"/><stop offset="0.368421" stop-color="#000000" stop-opacity="0.0495356"/><stop offset="0.421053" stop-color="#000000" stop-opacity="0.0454076"/><stop offset="0.473684" stop-color="#000000" stop-opacity="0.0412797"/><stop offset="0.526316" stop-color="#000000" stop-opacity="0.0371517"/><stop offset="0.578947" stop-color="#000000" stop-opacity="0.0330237"/><stop offset="0.631579" stop-color="#000000" stop-opacity="0.0288958"/><stop offset="0.684211" stop-color="#000000" stop-opacity="0.0247678"/><stop offset="0.736842" stop-color="#000000" stop-opacity="0.0206398"/><stop offset="0.789474" stop-color="#000000" stop-opacity="0.0165119"/><stop offset="0.842105" stop-color="#000000" stop-opacity="0.0123839"/><stop offset="0.894737" stop-color="#000000" stop-opacity="0.00825594"/><stop offset="0.947368" stop-color="#000000" stop-opacity="0.00412797"/><stop offset="1" stop-color="#000000" stop-opacity="0"/></linearGradient><clipPath id="clip3"><rect x="-7" y="-7" width="372" height="372"/></clipPath><clipPath id="clip4"><rect x="0" y="0" width="360" height="360"/></clipPath><linearGradient x1="485" y1="205" x2="795" y2="515" gradientUnits="userSpaceOnUse" spreadMethod="reflect" id="fill5"><stop offset="0" stop-color="#F5F5F5"/><stop offset="0.0454545" stop-color="#F4F4F4"/><stop offset="0.0909091" stop-color="#F4F4F4"/><stop offset="0.136364" stop-color="#F4F4F4"/><stop offset="0.181818" stop-color="#F4F4F4"/><stop offset="0.227273" stop-color="#F3F3F3"/><stop offset="0.272727" stop-color="#F2F2F2"/><stop offset="0.318182" stop-color="#F2F2F2"/><stop offset="0.363636" stop-color="#F1F1F1"/><stop offset="0.409091" stop-color="#F0F0F0"/><stop offset="0.454545" stop-color="#EFEFEF"/><stop offset="0.5" stop-color="#EEEEEE"/><stop offset="0.545455" stop-color="#EDEDED"/><stop offset="0.590909" stop-color="#ECECEC"/><stop offset="0.636364" stop-color="#EBEBEB"/><stop offset="0.681818" stop-color="#E9E9E9"/><stop offset="0.727273" stop-color="#E8E8E8"/><stop offset="0.772727" stop-color="#E6E6E6"/><stop offset="0.818182" stop-color="#E5E5E5"/><stop offset="0.863636" stop-color="#E3E3E3"/><stop offset="0.909091" stop-color="#E1E1E1"/><stop offset="0.954545" stop-color="#DFDFDF"/><stop offset="1" stop-color="#DEDEDE"/></linearGradient></defs><g clip-path="url(#clip1)" transform="translate(-401 -121)"><rect x="402" y="122" width="476" height="476" fill="#C34351"/><path d="M767.923 276 878 405.348 878 598 626.23 598 509 442.943Z" fill="url(#fill2)" fill-rule="evenodd"/><g clip-path="url(#clip3)" filter="url(#fx0)" transform="translate(460 180)"><g clip-path="url(#clip4)"><path d="M25 180C25 94.3959 94.3959 25 180 25L180 25C265.604 25 335 94.3959 335 180L335 180C335 265.604 265.604 335 180 335L180 335C94.3959 335 25 265.604 25 180Z" fill="#FF0000" fill-rule="evenodd"/></g></g><path d="M485 360C485 274.396 554.396 205 640 205L640 205C725.604 205 795 274.396 795 360L795 360C795 445.604 725.604 515 640 515L640 515C554.396 515 485 445.604 485 360Z" fill="url(#fill5)" fill-rule="evenodd"/><path d="M715 360C715 366.627 709.627 372 703 372L577 372C570.373 372 565 366.627 565 360L565 360C565 353.373 570.373 348 577 348L703 348C709.627 348 715 353.373 715 360Z" fill="#D25C70" fill-rule="evenodd"/><path d="M682 318C682 324.627 676.627 330 670 330L577 330C570.372 330 565 324.627 565 318L565 318C565 311.372 570.373 306 577 306L670 306C676.627 306 682 311.373 682 318Z" fill="#021856" fill-rule="evenodd"/><path d="M715 402C715 408.627 709.627 414 703 414L610 414C603.372 414 598 408.627 598 402L598 402C598 395.372 603.373 390 610 390L703 390C709.627 390 715 395.373 715 402Z" fill="#F0818B" fill-rule="evenodd"/><path d="M588 402.5C588 408.851 582.851 414 576.5 414L576.5 414C570.149 414 565 408.851 565 402.5L565 401.5C565 395.149 570.149 390 576.5 390L576.5 390C582.851 390 588 395.149 588 401.5Z" fill="#F0818B" fill-rule="evenodd"/><path d="M715 319C715 325.075 710.075 330 704 330L704 330C697.925 330 693 325.075 693 319L693 317C693 310.925 697.925 306 704 306L704 306C710.075 306 715 310.925 715 317Z" fill="#021856" fill-rule="evenodd"/></g></svg>